<svg xmlns="http://www.w3.org/2000/svg" width="278" height="141" viewBox="0 0 278 141">
  <g id="Group_12" data-name="Group 12" transform="translate(-897 -328)">
    <g id="pikir_logo_1_" data-name="pikir_logo (1)" transform="translate(844.421 250.328)">
      <path id="Path_1" data-name="Path 1" d="M52.579,106.312H83.966c21.459,0,34.437,12.7,34.437,31.291,0,20.772-16.191,31.542-36.363,31.542H72.369v26.927H52.579Zm30.106,45.266c9.892,0,15.673-5.9,15.673-13.85,0-8.849-6.168-13.594-16.06-13.594H72.369v27.444H82.685Z" transform="translate(0 -20.4)"/>
      <path id="Path_2" data-name="Path 2" d="M327.806,92.911H347.34v17.312H327.806Zm0,24.878H347.34v68.738H327.806Z" transform="translate(-196.156 -10.855)"/>
      <path id="Path_3" data-name="Path 3" d="M464.963,179.552H484.5V204.61l19.078-25.058h23.384l-22.421,27.114s21.772,8.681,21.772,41.761H507.395c-1.483-32.438-22.9-32.968-22.9-32.968v32.968H464.963Z" transform="translate(-293.943 -72.755)"/>
      <path id="Path_4" data-name="Path 4" d="M732.684,179.552h19.534v68.875H732.684Z" transform="translate(-484.716 -72.755)"/>
      <path id="Path_5" data-name="Path 5" d="M862.667,179.552H882.2v13.879c3.981-9.505,12.173-15.605,25.771-12.6l-3.8,17.871S882.2,195.5,882.2,217.3v31.129H862.667Z" transform="translate(-577.393 -72.755)"/>
      <circle id="Ellipse_1" data-name="Ellipse 1" cx="9.767" cy="9.767" r="9.767" transform="translate(247.968 77.672)"/>
    </g>
  </g>
</svg>
