<svg xmlns="http://www.w3.org/2000/svg" width="73.814" height="19.926" viewBox="0 0 73.814 19.926">
  <g id="Group_16" data-name="Group 16" transform="translate(-61.697 -125.501)">
    <path id="Path_13" data-name="Path 13" d="M97.655,133.739l-3.447-.577c-1.456-.246-2.106-.779-2.106-1.725,0-1.278,1.137-2.011,3.12-2.011a2.847,2.847,0,0,1,3.051,2.422l4.386-.057c-.455-3.57-3.364-6.051-7.41-6.051-5.172,0-7.487,2.9-7.487,5.776,0,2.855,1.9,4.876,5.082,5.406l3.793.6c1.021.161,2.238.646,2.238,2.038s-1.285,2.219-3.44,2.219c-2.441,0-3.757-1.365-4-3.025l-4.389.043c.452,3.882,3.312,6.668,8.339,6.668,5.412,0,7.834-3.032,7.834-6.038S101.242,134.395,97.655,133.739Z" transform="translate(-4.42 -0.042)"/>
    <path id="Path_14" data-name="Path 14" d="M142.125,133.739l-3.447-.577c-1.457-.246-2.107-.779-2.107-1.725,0-1.278,1.138-2.011,3.121-2.011a2.847,2.847,0,0,1,3.051,2.422l4.386-.057c-.455-3.57-3.364-6.051-7.41-6.051-5.172,0-7.487,2.9-7.487,5.776,0,2.855,1.9,4.876,5.082,5.406l3.792.6c1.021.161,2.239.646,2.239,2.038s-1.286,2.219-3.44,2.219c-2.442,0-3.757-1.365-4.005-3.025l-4.388.043c.452,3.882,3.312,6.668,8.338,6.668,5.412,0,7.835-3.032,7.835-6.038S145.712,134.395,142.125,133.739Z" transform="translate(-12.175 -0.042)"/>
    <path id="Path_15" data-name="Path 15" d="M71.2,125.5c-5.775,0-9.508,3.879-9.508,9.882,0,6.091,3.776,10.026,9.619,10.026a8.812,8.812,0,0,0,8.859-6.693H75.61s-.587,2.784-4.224,2.784c-3.366,0-5.376-2.352-5.376-6.293,0-3.4,2.218-5.961,5.16-5.961,3.2,0,4.494,2.006,4.655,3.946H68.174v3.392H80.319V134.9C80.319,128.926,77,125.5,71.2,125.5Z"/>
    <path id="Path_16" data-name="Path 16" d="M123.523,127.567a7.325,7.325,0,0,0-5.479-1.929c-7.208,0-7.725,5.131-7.755,6.129l4.526.011c0-.088.118-2.324,3.256-2.36h.05a2.937,2.937,0,0,1,2.613,1.312,1.748,1.748,0,0,1,.093,1.735,1.919,1.919,0,0,1-1.773.821h-2.9a7.254,7.254,0,0,0-5.2,1.949,5.224,5.224,0,0,0-1.53,3.852,6.281,6.281,0,0,0,6.247,6.353c4.176,0,5.37-2.93,5.37-2.93v2.355h4.122l0-13.225A6.056,6.056,0,0,0,123.523,127.567Zm-2.5,9.2a4.631,4.631,0,0,1-3.006,4.3c-1.717.649-3.279.527-3.98-.314a2.27,2.27,0,0,1-.335-2.436,2.992,2.992,0,0,1,2.856-1.548Z" transform="translate(-8.323 -0.024)"/>
  </g>
</svg>
