<svg width="74" height="20" viewBox="0 0 74 20" fill="none" xmlns="http://www.w3.org/2000/svg">
<g clip-path="url(#clip0)">
<path d="M31.538 8.196L28.091 7.619C26.635 7.373 25.985 6.84 25.985 5.894C25.985 4.616 27.122 3.883 29.105 3.883C29.8261 3.82341 30.5429 4.04063 31.1096 4.49051C31.6763 4.94039 32.0504 5.58918 32.156 6.30501L36.542 6.248C36.087 2.678 33.178 0.196999 29.132 0.196999C23.96 0.196999 21.645 3.09701 21.645 5.97301C21.645 8.82801 23.545 10.849 26.727 11.379L30.52 11.979C31.541 12.14 32.758 12.625 32.758 14.017C32.758 15.409 31.473 16.236 29.318 16.236C26.877 16.236 25.561 14.871 25.318 13.211L20.929 13.254C21.381 17.136 24.241 19.922 29.268 19.922C34.68 19.922 37.102 16.89 37.102 13.884C37.102 10.878 35.125 8.852 31.538 8.196Z" fill="white"/>
<path d="M68.253 8.196L64.806 7.619C63.349 7.373 62.699 6.84 62.699 5.894C62.699 4.616 63.837 3.883 65.82 3.883C66.5411 3.82341 67.2579 4.04063 67.8246 4.49051C68.3913 4.94039 68.7654 5.58918 68.871 6.30501L73.257 6.248C72.802 2.678 69.893 0.196999 65.847 0.196999C60.675 0.196999 58.36 3.09701 58.36 5.97301C58.36 8.82801 60.26 10.849 63.442 11.379L67.234 11.979C68.255 12.14 69.473 12.625 69.473 14.017C69.473 15.409 68.187 16.236 66.033 16.236C63.591 16.236 62.276 14.871 62.028 13.211L57.64 13.254C58.092 17.136 60.952 19.922 65.978 19.922C71.39 19.922 73.813 16.89 73.813 13.884C73.813 10.878 71.84 8.852 68.253 8.196Z" fill="white"/>
<path d="M9.503 -0.000999451C3.728 -0.000999451 -0.00499725 3.878 -0.00499725 9.881C-0.00499725 15.972 3.771 19.907 9.614 19.907C11.6343 19.9768 13.6172 19.3498 15.2302 18.1312C16.8432 16.9126 17.9881 15.1765 18.473 13.214H13.913C13.913 13.214 13.326 15.998 9.689 15.998C6.323 15.998 4.313 13.646 4.313 9.70499C4.313 6.30499 6.531 3.744 9.473 3.744C12.673 3.744 13.967 5.74999 14.128 7.68999H6.47701V11.082H18.622V9.39899C18.622 3.42499 15.303 -0.000999451 9.503 -0.000999451Z" fill="white"/>
<path d="M53.503 2.042C52.7695 1.36387 51.9051 0.842927 50.9629 0.511195C50.0207 0.179464 49.0205 0.043955 48.024 0.113002C40.816 0.113002 40.299 5.244 40.269 6.242L44.795 6.253C44.795 6.165 44.913 3.929 48.051 3.893H48.101C48.6132 3.86445 49.1239 3.97054 49.5824 4.20073C50.0408 4.43091 50.431 4.77716 50.714 5.205C50.8794 5.46099 50.975 5.75578 50.9913 6.06013C51.0077 6.36448 50.9441 6.66779 50.807 6.94C50.6121 7.22308 50.3447 7.44862 50.0328 7.59304C49.7209 7.73747 49.376 7.79547 49.034 7.761H46.134C45.1817 7.72842 44.2323 7.88378 43.3401 8.2182C42.4479 8.55261 41.6303 9.05953 40.934 9.71C40.4297 10.2137 40.0338 10.8153 39.7706 11.4778C39.5075 12.1402 39.3827 12.8495 39.404 13.562C39.3945 14.39 39.5488 15.2117 39.8581 15.9799C40.1673 16.7481 40.6255 17.4475 41.206 18.0379C41.7866 18.6284 42.4782 19.0982 43.2411 19.4203C44.0039 19.7424 44.8229 19.9106 45.651 19.915C49.827 19.915 51.021 16.985 51.021 16.985V19.34H55.143V6.115C55.1251 4.59998 54.5399 3.14672 53.503 2.042V2.042ZM51.003 11.242C50.9956 12.1787 50.7043 13.091 50.1677 13.8587C49.631 14.6264 48.8741 15.2134 47.997 15.542C46.28 16.191 44.718 16.069 44.017 15.228C43.7331 14.897 43.5505 14.4913 43.4911 14.0593C43.4317 13.6273 43.498 13.1873 43.682 12.792C43.9584 12.2863 44.375 11.8713 44.8816 11.5966C45.3883 11.322 45.9634 11.1996 46.538 11.244L51.003 11.242Z" fill="white"/>
</g>
<defs>
<clipPath id="clip0">
<rect width="73.814" height="19.926" fill="white"/>
</clipPath>
</defs>
</svg>
