<svg id="user" xmlns="http://www.w3.org/2000/svg" width="32.003" height="32.004" viewBox="0 0 32.003 32.004">
  <g id="user-2" data-name="user">
    <g id="user-3" data-name="user" transform="translate(0 0)">
      <path id="Path_565" data-name="Path 565" d="M14.978,28.261l-4.775,2.6a4.291,4.291,0,0,0-.766.545,15.992,15.992,0,0,0,20.547.053,4.236,4.236,0,0,0-.842-.564L24.03,28.344A1.95,1.95,0,0,1,22.952,26.6V24.594a7.722,7.722,0,0,0,.484-.622,11.765,11.765,0,0,0,1.589-3.2,1.606,1.606,0,0,0,1.139-1.528V17.1a1.6,1.6,0,0,0-.535-1.187v-3.1S26.265,8,19.741,8s-5.888,4.817-5.888,4.817v3.1a1.6,1.6,0,0,0-.535,1.187v2.141a1.605,1.605,0,0,0,.74,1.347,10.626,10.626,0,0,0,1.936,4.005V26.55A1.952,1.952,0,0,1,14.978,28.261Z" transform="translate(-3.738 -3.17)" fill="#163955"/>
      <g id="Group_602" data-name="Group 602">
        <path id="Path_566" data-name="Path 566" d="M16.276,0A15.992,15.992,0,0,0,5.705,28.236a4.252,4.252,0,0,1,.759-.54l4.775-2.6a1.951,1.951,0,0,0,1.016-1.712V21.424a10.616,10.616,0,0,1-1.936-4.005,1.606,1.606,0,0,1-.74-1.347V13.93a1.6,1.6,0,0,1,.535-1.187v-3.1S9.478,4.831,16,4.831s5.888,4.817,5.888,4.817v3.1a1.6,1.6,0,0,1,.535,1.187v2.141A1.606,1.606,0,0,1,21.285,17.6,11.765,11.765,0,0,1,19.7,20.8a7.722,7.722,0,0,1-.484.622V23.43a1.949,1.949,0,0,0,1.078,1.744L25.4,27.73a4.257,4.257,0,0,1,.839.563A16,16,0,0,0,16.276,0Z" transform="translate(0 0)" fill="#fff"/>
      </g>
    </g>
  </g>
</svg>
